<?xml version="1.0" encoding="UTF-8"?><svg id="a" xmlns="http://www.w3.org/2000/svg" viewBox="0 0 1088 248.41"><defs><style>.b{fill:#fff;}</style></defs><g><path class="b" d="M11.7,248.41H0L98.25,0h11.7l98.1,248.41h-11.55L104.1,14.55,11.7,248.41ZM105.45,40.2l6.15,13.8L34.8,248.41h-11.55L105.45,40.2Zm12,28.5l5.7,14.85L58.2,248.41h-11.7L117.46,68.7Zm11.4,29.7l5.7,15.15-53.25,134.85h-11.55l59.1-150.01Zm-29.4,120.3l4.2-10.8h70.8l4.5,10.8H99.45Zm8.4-21.6l4.2-10.8h53.85l4.65,10.8h-62.7Zm8.4-21.6l4.35-10.8h36.9l4.35,10.8h-45.6ZM133.06,0l98.25,248.41h-11.7L121.51,0h11.55Zm23.25,0l98.25,248.41h-11.55L144.76,0h11.55Zm121.51,248.41h-11.7L168.01,0h11.55l98.25,248.41Z"/><path class="b" d="M363.32,32.4h10.8V248.41h-10.8V32.4Zm21.6,0h10.8V248.41h-10.8V32.4Zm21.6,0h10.8V248.41h-10.8V32.4Zm21.6,0h10.8V194.41h79.65v10.8h-79.65v10.8h79.65v10.8h-79.65v10.8h79.65v10.8h-90.45V32.4Z"/><path class="b" d="M542.42,32.4h10.8V248.41h-10.8V32.4Zm21.6,0h10.8V248.41h-10.8V32.4Zm21.6,0h10.8V248.41h-10.8V32.4Zm21.6,0h10.8V248.41h-10.8V32.4Z"/><path class="b" d="M637.68,32.4h11.7l79.65,201.46,79.65-201.46h11.55l-85.35,216.01h-11.7l-85.5-216.01Zm23.25,0h11.55l64.05,162.01-6.15,13.8-69.45-175.81Zm23.25,0h11.7l52.2,132.46-5.7,14.85-58.2-147.31Zm23.25,0h11.55l40.5,102.45-5.7,15.15-46.35-117.6Zm124.36,0h11.7l-85.5,216.01h-11.55l85.35-216.01Zm23.4,0h11.55l-85.5,216.01h-11.55l85.5-216.01Zm23.1,0h11.7l-85.5,216.01h-11.55l85.35-216.01Z"/><path class="b" d="M919.84,248.41h-10.8V32.4h10.8V248.41Zm21.6,0h-10.8V32.4h10.8V248.41Zm21.6,0h-10.8V32.4h10.8V248.41Zm21.6-54h103.35v10.8h-103.35v10.8h103.35v10.8h-103.35v10.8h103.35v10.8h-114.16V32.4h114.16v10.8h-103.35v10.8h103.35v10.8h-103.35v10.8h103.35v10.8h-103.35v26.85h97.35v10.8h-97.35v10.8h97.35v10.8h-97.35v10.8h97.35v10.8h-97.35v27.15Z"/></g><path class="b" d="M324.87,83.18v26.98h-26.98v-26.98h26.98Zm0,96.98v26.98h-26.98v-26.98h26.98Z"/></svg>